<?xml version="1.0" encoding="utf-8"?>
<!-- Generator: Adobe Illustrator 19.0.0, SVG Export Plug-In . SVG Version: 6.00 Build 0)  -->
<svg version="1.1" id="Bold" xmlns="http://www.w3.org/2000/svg" xmlns:xlink="http://www.w3.org/1999/xlink" x="0px" y="0px"
	 viewBox="-143 145 512 512" style="enable-background:new -143 145 512 512;" xml:space="preserve">
<style type="text/css">
	.st0{fill:#FFFFFF;}
</style>
<path class="st0" d="M113.1,269.5c-72.6,0-131.4,58.8-131.4,131.4c0,72.6,58.8,131.4,131.4,131.4c72.6,0,131.4-58.8,131.4-131.4
	C244.5,328.3,185.6,269.5,113.1,269.5L113.1,269.5z M113.1,486.2c-47.1,0-85.3-38.2-85.3-85.3s38.2-85.3,85.3-85.3
	s85.3,38.2,85.3,85.3C198.4,448,160.2,486.2,113.1,486.2z"/>
<path class="st0" d="M218.6,146.6c-47.1-2.2-163.8-2.1-210.9,0c-41.4,1.9-78,11.9-107.4,41.4c-49.2,49.2-42.9,115.6-42.9,212.9
	c0,99.6-5.5,164.4,42.9,212.9c49.4,49.4,116.7,42.9,212.9,42.9c98.6,0,132.7,0.1,167.6-13.4c47.4-18.4,83.2-60.8,86.7-136.9
	c2.2-47.1,2.1-163.8,0-210.9C363.2,205.6,314.9,151.1,218.6,146.6L218.6,146.6z M293.1,581.2c-32.3,32.3-77.1,29.4-180.7,29.4
	c-106.7,0-149.4,1.6-180.7-29.7c-35.9-35.8-29.4-93.2-29.4-180.3c0-117.9-12.1-202.8,106.2-208.8c27.2-1,35.2-1.3,103.6-1.3l1,0.6
	c113.7,0,202.9-11.9,208.2,106.4c1.2,27,1.5,35.1,1.5,103.4C322.8,506.3,324.8,549.4,293.1,581.2L293.1,581.2z"/>
<circle class="st0" cx="249.7" cy="264.4" r="30.7"/>
</svg>
