<?xml version="1.0" encoding="utf-8"?>
<!-- Generator: Adobe Illustrator 19.0.0, SVG Export Plug-In . SVG Version: 6.00 Build 0)  -->
<svg version="1.1" id="Capa_1" xmlns="http://www.w3.org/2000/svg" xmlns:xlink="http://www.w3.org/1999/xlink" x="0px" y="0px"
	 viewBox="-255 257.8 287.2 287.2" style="enable-background:new -255 257.8 287.2 287.2;" xml:space="preserve">
<style type="text/css">
	.st0{fill:#FFFFFF;}
</style>
<g>
	<g>
		<path class="st0" d="M-235.6,414.2c-3.6,4.9-7.3,9.8-7.2,9.5c-10.6,11.9-10.9,19.2-12.2,33.8c0,0,0,32.4,13,38.6
			c1.5,3.1,3.2,6.2,5.2,9.2c3.2,4.9,11.5,10.5,17.8,13c6.3,2.5,11.4,4.6,11.4,4.6c2.7,0.9,4.3-0.3,4.3-0.3l0.1-124.9
			c-1.2-1-4.1-1-5.3-1l-0.1-0.9c4-58.4,44.3-100.9,95.9-100.9c52,0,93.2,44.1,96.9,101.8c-1.3,0.1-2.9,0.3-3.7,1l0.1,124.9
			c0,0,1.5,1.2,4.3,0.3c0,0,5.1-2,11.4-4.6c6.3-2.5,14.6-8.1,17.8-13c2-3.1,3.7-6.2,5.2-9.2c13-6.1,13-38.6,13-38.6
			c-1.2-14.6-1.5-21.9-12.2-33.8c0.1,0.3-3.6-4.6-7.2-9.5c-3.3-4.4-9-9.3-13.9-12.1c0.3-2.7,0.9-7.6,1.3-13.7l0.1-2.2l-3.3-0.9
			c-0.4-5.3-0.9-10-1.7-14.2l-0.3,0.1l0.3-0.1c-0.1-0.6-0.2-1.1-0.4-1.6l-0.3-1.1c-0.6-2.6-1.2-5.2-1.9-7.8
			c-0.2-0.9-0.5-1.7-0.8-2.6l-0.4-1.3c-0.7-2.1-1.4-4.2-2.2-6.2c-0.4-1.1-0.9-2.2-1.4-3.3l-0.3-0.7c-0.8-1.9-1.7-3.8-2.6-5.7
			c-0.6-1.3-1.3-2.6-2-3.9c-1-1.8-2-3.6-3.1-5.3c-0.7-1.2-1.5-2.4-2.2-3.6c-1.2-1.8-2.4-3.5-3.7-5.2l-0.6-0.8
			c-0.6-0.8-1.1-1.5-1.7-2.3c-1.5-1.8-3-3.6-4.6-5.3l-0.8-0.9c-0.4-0.5-0.9-1-1.3-1.5c-2.5-2.6-4.9-4.9-7.3-7
			c-0.2-0.2-0.4-0.3-0.9-0.8c-2.4-2-4.7-3.9-7-5.6c-0.6-0.4-1.2-0.9-1.9-1.3l-1-0.6c-1.9-1.3-3.7-2.5-5.7-3.6
			c-0.9-0.5-1.9-1.1-2.8-1.6l-0.6-0.3c-1.8-1-3.7-1.9-5.6-2.8c-1.2-0.6-2.5-1.1-3.8-1.7c-1.9-0.8-3.8-1.5-5.7-2.2
			c-1.3-0.5-2.6-0.9-3.9-1.3c-2-0.6-4.1-1.2-6.1-1.7l-0.8-0.2c-1-0.3-2.1-0.5-3.1-0.7c-2.3-0.5-4.6-0.8-6.9-1.1l-1.3-0.2
			c-0.7-0.1-1.4-0.2-2.1-0.3c-7.6-0.8-13.8-0.8-21.2,0c-0.8,0.1-1.6,0.2-2.3,0.3l-1.3,0.2c-2.3,0.3-4.5,0.6-6.7,1.1
			c-1.2,0.2-2.3,0.5-3.4,0.8l-1.3,0.3c-1.7,0.4-3.4,0.9-5.1,1.4c-1.8,0.5-3.5,1.2-5.2,1.8c-1.3,0.5-2.7,1-4,1.5
			c-2.1,0.8-4.1,1.8-6.1,2.7c-0.7,0.4-1.5,0.7-2.2,1.1c-35.4,18.2-59,54.5-61.9,95.2l-2.3,0.6l0.1,2.2c0.4,6.8,1,12.1,1.4,14.5
			C-227.6,405.7-232.7,410.2-235.6,414.2z"/>
		<path class="st0" d="M-42.3,520.1c0,0,1.8,5.2,10.6,3.9l5.2-1.8c0,0,6.4-72.8,0-124.8c0,0-12.8-3.2-16.4,5.9c0,0,0,0.1,0.1,0.2
			c2.8,1.7,4.9,27.1,4.9,58.3c0,28.9-1.9,52.8-4.3,57.5C-42.3,519.6-42.3,519.9-42.3,520.1z"/>
		<path class="st0" d="M-179.9,403.4c-3.6-9.1-16.4-5.9-16.4-5.9c-6.4,52,0,124.8,0,124.8l5.2,1.8c8.8,1.2,10.6-3.9,10.6-3.9
			c0-0.2,0-0.5-0.1-0.7c-2.5-4.8-4.3-28.7-4.3-57.6c0-31.2,2.2-56.6,4.9-58.3C-179.9,403.4-179.9,403.4-179.9,403.4z"/>
	</g>
</g>
</svg>
